<svg width="20" height="20" viewBox="0 0 20 20" fill="none" xmlns="http://www.w3.org/2000/svg">
<path d="M19 2.13876C19 1.50984 18.4963 1 17.875 1H2.125C1.50368 1 1 1.50984 1 2.13876V3.94459C1 4.24661 1.11853 4.53625 1.3295 4.74981L6.29549 9.77653C6.50647 9.99009 6.62499 10.2797 6.62499 10.5818V18.4302C6.62499 18.8188 7.00113 19.0932 7.36537 18.9703L12.9904 17.0724C13.2201 16.9949 13.375 16.7773 13.375 16.5323V10.5818C13.375 10.2798 13.4935 9.99011 13.7045 9.77655L18.6705 4.74981C18.8815 4.53625 19 4.24661 19 3.94459V2.13876Z" stroke="#696F8C" stroke-width="1.6"/>
</svg>
