<svg width="25" height="24" viewBox="0 0 25 24" fill="none" xmlns="http://www.w3.org/2000/svg">
<path d="M10.3268 12.482L9.6612 12.0382L10.3268 12.482ZM6.27881 17.1118C6.03372 17.4794 6.13306 17.9761 6.50069 18.2212C6.86831 18.4663 7.365 18.3669 7.61009 17.9993L6.27881 17.1118ZM18.7212 9.11043C18.9663 8.7428 18.8669 8.24611 18.4993 8.00103C18.1317 7.75594 17.635 7.85528 17.3899 8.22291L18.7212 9.11043ZM14.6732 13.7403L15.3388 14.184L14.6732 13.7403ZM12.7549 13.6208L13.4704 13.2631L12.7549 13.6208ZM12.2451 12.6014L12.9607 12.2436L12.2451 12.6014ZM9.6612 12.0382L6.27881 17.1118L7.61009 17.9993L10.9925 12.9257L9.6612 12.0382ZM17.3899 8.22291L14.0075 13.2965L15.3388 14.184L18.7212 9.11043L17.3899 8.22291ZM13.4704 13.2631L12.9607 12.2436L11.5296 12.9592L12.0393 13.9786L13.4704 13.2631ZM14.0075 13.2965C13.875 13.4953 13.5772 13.4767 13.4704 13.2631L12.0393 13.9786C12.6956 15.2911 14.5248 15.405 15.3388 14.184L14.0075 13.2965ZM10.9925 12.9257C11.125 12.727 11.4228 12.7455 11.5296 12.9592L12.9607 12.2436C12.3044 10.9311 10.4752 10.8173 9.6612 12.0382L10.9925 12.9257ZM6.94444 2.8H18.0556V1.2H6.94444V2.8ZM21.7 6.44444V17.5556H23.3V6.44444H21.7ZM18.0556 21.2H6.94444V22.8H18.0556V21.2ZM3.3 17.5556V6.44444H1.7V17.5556H3.3ZM6.94444 21.2C5.87426 21.2 5.15211 21.1983 4.61266 21.1258C4.09623 21.0563 3.86858 20.9355 3.71656 20.7834L2.58519 21.9148C3.08404 22.4137 3.70561 22.6182 4.39946 22.7115C5.0703 22.8017 5.91949 22.8 6.94444 22.8V21.2ZM1.7 17.5556C1.7 18.5805 1.6983 19.4297 1.78849 20.1005C1.88178 20.7944 2.08634 21.416 2.58519 21.9148L3.71656 20.7834C3.56454 20.6314 3.44366 20.4038 3.37423 19.8873C3.3017 19.3479 3.3 18.6257 3.3 17.5556H1.7ZM21.7 17.5556C21.7 18.6257 21.6983 19.3479 21.6258 19.8873C21.5563 20.4038 21.4355 20.6314 21.2834 20.7834L22.4148 21.9148C22.9137 21.416 23.1182 20.7944 23.2115 20.1005C23.3017 19.4297 23.3 18.5805 23.3 17.5556H21.7ZM18.0556 22.8C19.0805 22.8 19.9297 22.8017 20.6005 22.7115C21.2944 22.6182 21.916 22.4137 22.4148 21.9148L21.2834 20.7834C21.1314 20.9355 20.9038 21.0563 20.3873 21.1258C19.8479 21.1983 19.1257 21.2 18.0556 21.2V22.8ZM18.0556 2.8C19.1257 2.8 19.8479 2.8017 20.3873 2.87423C20.9038 2.94366 21.1314 3.06454 21.2834 3.21656L22.4148 2.08519C21.916 1.58634 21.2944 1.38178 20.6005 1.28849C19.9297 1.1983 19.0805 1.2 18.0556 1.2V2.8ZM23.3 6.44444C23.3 5.41949 23.3017 4.5703 23.2115 3.89946C23.1182 3.20561 22.9137 2.58404 22.4148 2.08519L21.2834 3.21656C21.4355 3.36858 21.5563 3.59623 21.6258 4.11266C21.6983 4.65211 21.7 5.37426 21.7 6.44444H23.3ZM6.94444 1.2C5.91949 1.2 5.0703 1.1983 4.39946 1.28849C3.70561 1.38178 3.08404 1.58634 2.58519 2.08519L3.71656 3.21656C3.86858 3.06454 4.09623 2.94366 4.61266 2.87423C5.15211 2.8017 5.87426 2.8 6.94444 2.8V1.2ZM3.3 6.44444C3.3 5.37426 3.3017 4.65211 3.37423 4.11266C3.44366 3.59623 3.56454 3.36858 3.71656 3.21656L2.58519 2.08519C2.08634 2.58404 1.88178 3.20561 1.78849 3.89946C1.6983 4.5703 1.7 5.41949 1.7 6.44444H3.3Z" fill="#9096A2"/>
</svg>
